<?xml version="1.0" encoding="UTF-8"?>
<svg xmlns="http://www.w3.org/2000/svg" width="870" height="900" viewBox="0 0 870 900" fill="none">
  <path d="M239.458 126.207L303.549 15.0488L431.768 15.0488L495.847 126.207L431.768 237.365L303.549 237.365L239.458 126.207ZM306.93 20.9402L246.208 126.207L306.93 231.486L428.35 231.486L489.072 126.207L428.35 20.9402L306.93 20.9402Z" fill="#7AB92F"></path>
  <path d="M239.458 342.569L303.549 231.411L431.768 231.411L495.847 342.569L431.768 453.727L303.549 453.727L239.458 342.569ZM306.93 237.303L246.208 342.569L306.93 447.824L428.35 447.824L489.072 342.569L428.35 237.303L306.93 237.303Z" fill="#7AB92F"></path>
  <path d="M239.459 558.928L303.55 447.77L431.769 447.77L495.848 558.928L431.769 670.086L303.55 670.086L239.459 558.928ZM306.931 453.673L246.209 558.928L306.931 664.182L428.351 664.182L489.073 558.928L428.351 453.673L306.931 453.673Z" fill="#7AB92F"></path>
  <path d="M240.31 773.836L303.55 664.185L431.732 664.185L495.811 775.293L432.571 884.945L427.512 882.017L489.073 775.293L428.351 670.039L306.931 670.039L245.369 776.763L240.31 773.836Z" fill="#7AB92F"></path>
  <path d="M426.759 234.386L490.011 124.734L495.07 127.662L433.508 234.386L494.231 339.64L615.651 339.64L677.212 232.916L682.271 235.843L619.032 345.494L490.85 345.494L426.759 234.386Z" fill="#7AB92F"></path>
  <path d="M426.759 450.75L490.85 339.592L619.032 339.592L683.11 450.75L619.032 561.908L490.85 561.908L426.759 450.75ZM494.231 345.496L433.508 450.75L494.231 556.004L615.626 556.004L676.348 450.75L615.626 345.496L494.231 345.496Z" fill="#7AB92F"></path>
  <path d="M426.759 667.109L490.85 556L619.032 556L683.11 667.109L619.871 776.76L614.812 773.833L676.373 667.109L615.651 561.854L494.231 561.854L433.508 667.109L495.07 773.833L490.01 776.76L426.759 667.109Z" fill="#7AB92F"></path>
  <path d="M614.033 342.565L677.285 232.914L682.332 235.841L620.783 342.565L681.493 447.82L802.925 447.82L864.487 341.096L869.546 344.023L806.294 453.674L678.124 453.674L614.033 342.565Z" fill="#7AB92F"></path>
  <path d="M614.035 558.929L678.126 447.82L804.617 447.82L804.617 453.675L681.494 453.675L620.784 558.929L681.494 664.183L804.617 664.183L804.617 670.038L678.126 670.038L614.035 558.929Z" fill="#7AB92F"></path>
  <path d="M869.777 773.854L807.376 665.673L802.321 668.594L864.722 776.775L869.777 773.854Z" fill="#7AB92F"></path>
  <path d="M52.3923 234.387L116.483 123.229L244.653 123.229L308.744 234.387L244.653 345.545L116.483 345.545L52.3923 234.387ZM119.852 129.12L59.1173 234.387L119.84 339.641L241.284 339.641L301.994 234.387L241.284 129.12L119.852 129.12Z" fill="#7AB92F"></path>
  <path d="M52.3923 450.75L116.483 339.592L244.653 339.592L308.744 450.75L244.653 561.908L116.483 561.908L52.3923 450.75ZM119.852 345.496L59.1173 450.75L119.84 556.004L241.284 556.004L301.994 450.75L241.284 345.496L119.852 345.496Z" fill="#7AB92F"></path>
  <path d="M52.3923 667.114L116.483 555.956L244.653 555.956L308.744 667.114L244.653 778.272L116.483 778.272L52.3923 667.114ZM119.852 561.86L59.1173 667.114L119.84 772.369L241.284 772.369L301.994 667.114L241.284 561.86L119.852 561.86Z" fill="#7AB92F"></path>
  <path d="M-134.044 344.023L-128.985 341.096L-67.4234 447.82L54.009 447.82L114.719 342.565L53.1699 235.841L58.2291 232.914L121.469 342.565L57.3777 453.674L-70.7921 453.674L-134.044 344.023Z" fill="#7AB92F"></path>
  <path d="M-134.044 557.472L-70.7921 447.82L57.3777 447.82L121.469 558.929L57.3777 670.038L-69.1139 670.038L-69.1139 664.183L54.009 664.183L114.719 558.929L54.009 453.675L-67.4234 453.675L-128.985 560.386L-134.044 557.472Z" fill="#7AB92F"></path>
  <path d="M791.26 454.077C794.153 461.086 802.175 464.422 809.179 461.526C816.182 458.631 819.514 450.601 816.621 443.592C813.729 436.582 805.707 433.247 798.703 436.142C791.7 439.037 788.368 447.067 791.26 454.077Z" fill="#7AB92F"></path>
  <path d="M668.414 450.749C668.414 458.368 674.585 464.545 682.197 464.545C689.81 464.545 695.98 458.368 695.98 450.749C695.98 443.13 689.81 436.953 682.197 436.953C674.585 436.953 668.414 443.13 668.414 450.749Z" fill="#7AB92F"></path>
  <path d="M668.414 234.387C668.414 242.006 674.585 248.183 682.197 248.183C689.81 248.183 695.98 242.006 695.98 234.387C695.98 226.767 689.81 220.591 682.197 220.591C674.585 220.591 668.414 226.767 668.414 234.387Z" fill="#7AB92F"></path>
  <path d="M606.135 342.569C606.135 350.189 612.306 356.365 619.918 356.365C627.53 356.365 633.701 350.189 633.701 342.569C633.701 334.95 627.53 328.773 619.918 328.773C612.306 328.773 606.135 334.95 606.135 342.569Z" fill="#7AB92F"></path>
  <path d="M606.135 558.93C606.135 566.549 612.306 572.726 619.918 572.726C627.53 572.726 633.701 566.549 633.701 558.93C633.701 551.31 627.53 545.134 619.918 545.134C612.306 545.134 606.135 551.31 606.135 558.93Z" fill="#7AB92F"></path>
  <path d="M794.464 672.386C797.377 679.425 805.44 682.768 812.472 679.852C819.505 676.936 822.845 668.866 819.932 661.827C817.019 654.788 808.956 651.445 801.923 654.361C794.89 657.276 791.551 665.347 794.464 672.386Z" fill="#7AB92F"></path>
  <path d="M606.614 786.001C612.501 790.832 621.185 789.972 626.012 784.08C630.839 778.188 629.979 769.495 624.093 764.664C618.206 759.833 609.522 760.693 604.695 766.585C599.869 772.477 600.728 781.17 606.614 786.001Z" fill="#7AB92F"></path>
  <path d="M478.658 558.93C478.658 566.549 484.829 572.726 492.441 572.726C500.054 572.726 506.225 566.549 506.225 558.93C506.225 551.31 500.054 545.134 492.441 545.134C484.829 545.134 478.658 551.31 478.658 558.93Z" fill="#7AB92F"></path>
  <path d="M478.658 342.569C478.658 350.189 484.829 356.365 492.441 356.365C500.054 356.365 506.225 350.189 506.225 342.569C506.225 334.95 500.054 328.773 492.441 328.773C484.829 328.773 478.658 334.95 478.658 342.569Z" fill="#7AB92F"></path>
  <path d="M417.4 239.667C420.313 246.706 428.376 250.049 435.409 247.133C442.442 244.218 445.781 236.147 442.868 229.108C439.955 222.069 431.893 218.726 424.86 221.642C417.827 224.558 414.487 232.628 417.4 239.667Z" fill="#7AB92F"></path>
  <path d="M478.658 126.202C478.658 133.822 484.829 139.998 492.441 139.998C500.054 139.998 506.225 133.822 506.225 126.202C506.225 118.583 500.054 112.406 492.441 112.406C484.829 112.406 478.658 118.583 478.658 126.202Z" fill="#7AB92F"></path>
  <path d="M427.821 31.6324C435.335 32.8532 442.415 27.746 443.635 20.2252C444.854 12.7043 439.752 5.6178 432.238 4.39699C424.724 3.17618 417.644 8.28336 416.424 15.8042C415.205 23.3251 420.307 30.4116 427.821 31.6324Z" fill="#7AB92F"></path>
  <path d="M292.51 23.3048C295.423 30.3441 303.486 33.6869 310.518 30.7711C317.551 27.8553 320.891 19.7851 317.978 12.7458C315.065 5.70649 307.002 2.36371 299.969 5.27949C292.936 8.19527 289.597 16.2655 292.51 23.3048Z" fill="#7AB92F"></path>
  <path d="M229.056 126.202C229.056 133.822 235.227 139.998 242.839 139.998C250.451 139.998 256.622 133.822 256.622 126.202C256.622 118.583 250.451 112.406 242.839 112.406C235.227 112.406 229.056 118.583 229.056 126.202Z" fill="#7AB92F"></path>
  <path d="M291.579 234.387C291.579 242.006 297.75 248.183 305.362 248.183C312.975 248.183 319.146 242.006 319.146 234.387C319.146 226.767 312.975 220.591 305.362 220.591C297.75 220.591 291.579 226.767 291.579 234.387Z" fill="#7AB92F"></path>
  <path d="M229.18 342.569C229.18 350.189 235.351 356.365 242.963 356.365C250.575 356.365 256.746 350.189 256.746 342.569C256.746 334.95 250.575 328.773 242.963 328.773C235.351 328.773 229.18 334.95 229.18 342.569Z" fill="#7AB92F"></path>
  <path d="M291.58 450.749C291.58 458.368 297.751 464.545 305.363 464.545C312.976 464.545 319.146 458.368 319.146 450.749C319.146 443.13 312.976 436.953 305.363 436.953C297.751 436.953 291.58 443.13 291.58 450.749Z" fill="#7AB92F"></path>
  <path d="M233.369 568.68C238.752 574.067 247.479 574.067 252.861 568.68C258.244 563.292 258.244 554.557 252.861 549.169C247.479 543.782 238.752 543.782 233.369 549.169C227.986 554.557 227.986 563.292 233.369 568.68Z" fill="#7AB92F"></path>
  <path d="M291.58 667.109C291.58 674.729 297.751 680.905 305.363 680.905C312.976 680.905 319.146 674.729 319.146 667.109C319.146 659.49 312.976 653.313 305.363 653.313C297.751 653.313 291.58 659.49 291.58 667.109Z" fill="#7AB92F"></path>
  <path d="M229.18 775.292C229.18 782.911 235.351 789.088 242.963 789.088C250.575 789.088 256.746 782.911 256.746 775.292C256.746 767.673 250.575 761.496 242.963 761.496C235.351 761.496 229.18 767.673 229.18 775.292Z" fill="#7AB92F"></path>
  <path d="M104.241 775.292C104.241 782.911 110.412 789.088 118.024 789.088C125.637 789.088 131.808 782.911 131.808 775.292C131.808 767.673 125.637 761.496 118.024 761.496C110.412 761.496 104.241 767.673 104.241 775.292Z" fill="#7AB92F"></path>
  <path d="M53.5154 680.756C61.0293 681.976 68.1093 676.869 69.3289 669.348C70.5486 661.827 65.4462 654.741 57.9323 653.52C50.4184 652.299 43.3384 657.406 42.1187 664.927C40.8991 672.448 46.0016 679.535 53.5154 680.756Z" fill="#7AB92F"></path>
  <path d="M114.972 572.34C122.381 574.09 129.804 569.497 131.553 562.082C133.301 554.666 128.713 547.236 121.304 545.485C113.896 543.735 106.472 548.328 104.724 555.743C102.975 563.159 107.563 570.589 114.972 572.34Z" fill="#7AB92F"></path>
  <path d="M53.5222 464.382C61.0361 465.603 68.1161 460.496 69.3358 452.975C70.5554 445.454 65.453 438.368 57.9391 437.147C50.4252 435.926 43.3452 441.033 42.1256 448.554C40.9059 456.075 46.0084 463.162 53.5222 464.382Z" fill="#7AB92F"></path>
  <path d="M114.966 355.977C122.375 357.727 129.798 353.135 131.547 345.719C133.295 338.304 128.707 330.873 121.298 329.123C113.89 327.373 106.466 331.966 104.718 339.381C102.969 346.797 107.557 354.227 114.966 355.977Z" fill="#7AB92F"></path>
  <path d="M53.5252 248.008C61.0391 249.229 68.119 244.122 69.3387 236.601C70.5584 229.08 65.4559 221.994 57.942 220.773C50.4281 219.552 43.3482 224.659 42.1285 232.18C40.9088 239.701 46.0113 246.788 53.5252 248.008Z" fill="#7AB92F"></path>
  <path d="M104.377 126.202C104.377 133.822 110.548 139.998 118.16 139.998C125.772 139.998 131.943 133.822 131.943 126.202C131.943 118.583 125.772 112.406 118.16 112.406C110.548 112.406 104.377 118.583 104.377 126.202Z" fill="#7AB92F"></path>
  <path d="M417.409 672.396C420.322 679.435 428.385 682.778 435.418 679.862C442.451 676.946 445.79 668.876 442.877 661.837C439.964 654.797 431.901 651.455 424.869 654.37C417.836 657.286 414.496 665.356 417.409 672.396Z" fill="#7AB92F"></path>
  <path d="M478.755 775.292C478.755 782.911 484.926 789.088 492.538 789.088C500.15 789.088 506.321 782.911 506.321 775.292C506.321 767.673 500.15 761.496 492.538 761.496C484.926 761.496 478.755 767.673 478.755 775.292Z" fill="#7AB92F"></path>
  <path d="M427.849 897.035C435.361 898.265 442.447 893.167 443.676 885.647C444.905 878.128 439.811 871.035 432.299 869.805C424.786 868.575 417.7 873.674 416.471 881.193C415.242 888.712 420.336 895.805 427.849 897.035Z" fill="#7AB92F"></path>
</svg>
