<?xml version="1.0" encoding="UTF-8"?>
<svg xmlns="http://www.w3.org/2000/svg" width="681" height="896" viewBox="0 0 681 896" fill="none">
  <path d="M450.431 233.678H579.054L643.371 122.293L579.054 10.8457H450.431L386.114 122.293L450.431 233.678ZM575.673 16.7524L636.598 122.293L575.673 227.846H453.812L392.887 122.318L453.812 16.7772L575.673 16.7524Z" fill="#7AB92F"></path>
  <path d="M450.431 450.621H579.054L643.371 339.174L579.054 227.727H450.431L386.114 339.174L450.431 450.621ZM575.673 233.683L636.598 339.223L575.673 444.751H453.812L392.887 339.223L453.812 233.683H575.673Z" fill="#7AB92F"></path>
  <path d="M450.431 667.542H579.054L643.371 556.095L579.054 444.647H450.431L386.114 556.095L450.431 667.542ZM575.673 450.616L636.598 556.144L575.673 661.672H453.812L392.887 556.144L453.812 450.616H575.673Z" fill="#7AB92F"></path>
  <path d="M386.956 771.612L450.431 661.676H579.054L643.371 773.073L579.908 883.01L574.831 880.075L636.598 773.073L575.673 667.545H453.812L392.033 774.547L386.956 771.612Z" fill="#7AB92F"></path>
  <path d="M574.077 230.759L637.54 120.822L642.629 123.757L580.851 230.759L641.775 336.287H763.636L825.415 229.285L830.492 232.22L767.017 342.156H638.394L574.077 230.759Z" fill="#7AB92F"></path>
  <path d="M638.394 559.087H767.017L831.334 447.64L767.017 336.192H638.394L574.077 447.64L638.394 559.087ZM763.636 342.161L824.56 447.689L763.636 553.217H641.775L580.85 447.689L641.775 342.161H763.636Z" fill="#7AB92F"></path>
  <path d="M574.077 664.606L638.394 553.208H767.017L831.334 664.606L767.871 774.542L762.794 771.607L824.56 664.606L763.636 559.078H641.775L580.85 664.606L642.629 771.607L637.54 774.542L574.077 664.606Z" fill="#7AB92F"></path>
  <path d="M262.693 342.155H391.328L455.633 230.708L391.328 119.261H262.693L198.376 230.708L262.693 342.155ZM387.935 125.217L448.872 230.757L387.935 336.285H266.086L205.149 230.757L266.086 125.217H387.935Z" fill="#7AB92F"></path>
  <path d="M262.693 559.087H391.328L455.633 447.64L391.328 336.192H262.693L198.376 447.64L262.693 559.087ZM387.935 342.161L448.872 447.689L387.935 553.217H266.086L205.149 447.689L266.086 342.161H387.935Z" fill="#7AB92F"></path>
  <path d="M262.693 776.004H391.328L455.633 664.556L391.328 553.109H262.693L198.376 664.556L262.693 776.004ZM387.935 559.078L448.872 664.606L387.935 770.134H266.086L205.149 664.606L266.086 559.078H387.935Z" fill="#7AB92F"></path>
  <path d="M11.2919 340.682L16.369 337.747L78.1479 444.749H200.009L260.934 339.221L199.155 232.219L204.232 229.284L267.707 339.221L203.39 450.618H74.7549L11.2919 340.682Z" fill="#7AB92F"></path>
  <path d="M11.2919 554.679L74.7549 444.742H203.39L267.707 556.14L203.39 667.537H76.4514V661.668H200.009L260.934 556.14L200.009 450.612H78.1479L16.369 557.601L11.2919 554.679Z" fill="#7AB92F"></path>
  <path d="M630.211 565.931C624.809 560.529 624.809 551.771 630.211 546.37C635.613 540.968 644.37 540.968 649.772 546.37C655.174 551.771 655.174 560.529 649.772 565.931C644.371 571.333 635.613 571.333 630.211 565.931Z" fill="#7AB92F"></path>
  <path d="M637.758 352.86C630.218 351.636 625.097 344.531 626.321 336.99C627.545 329.45 634.65 324.329 642.191 325.553C649.731 326.777 654.852 333.882 653.628 341.423C652.404 348.963 645.299 354.084 637.758 352.86Z" fill="#7AB92F"></path>
  <path d="M577.457 244.588C569.818 244.588 563.625 238.396 563.625 230.757C563.625 223.118 569.818 216.925 577.457 216.925C585.096 216.925 591.289 223.118 591.289 230.757C591.289 238.396 585.096 244.588 577.457 244.588Z" fill="#7AB92F"></path>
  <path d="M637.768 135.928C630.228 134.704 625.107 127.599 626.331 120.059C627.555 112.518 634.66 107.398 642.2 108.622C649.741 109.846 654.861 116.951 653.637 124.491C652.413 132.031 645.308 137.152 637.768 135.928Z" fill="#7AB92F"></path>
  <path d="M577.371 27.6637C569.732 27.6637 563.539 21.4709 563.539 13.8318C563.539 6.19272 569.732 0 577.371 0C585.01 0 591.203 6.19272 591.203 13.8318C591.203 21.4709 585.01 27.6637 577.371 27.6637Z" fill="#7AB92F"></path>
  <path d="M452.129 27.6637C444.49 27.6637 438.297 21.4709 438.297 13.8318C438.297 6.19272 444.49 0 452.129 0C459.768 0 465.961 6.19272 465.961 13.8318C465.961 21.4709 459.768 27.6637 452.129 27.6637Z" fill="#7AB92F"></path>
  <path d="M376.715 127.587C373.792 120.529 377.143 112.438 384.201 109.515C391.259 106.591 399.35 109.943 402.273 117C405.197 124.058 401.845 132.149 394.787 135.073C387.73 137.996 379.639 134.644 376.715 127.587Z" fill="#7AB92F"></path>
  <path d="M452.252 244.588C444.613 244.588 438.42 238.396 438.42 230.757C438.42 223.118 444.613 216.925 452.252 216.925C459.891 216.925 466.084 223.118 466.084 230.757C466.084 238.396 459.891 244.588 452.252 244.588Z" fill="#7AB92F"></path>
  <path d="M387.401 352.843C379.86 351.619 374.74 344.514 375.964 336.974C377.188 329.433 384.293 324.313 391.833 325.537C399.374 326.761 404.494 333.866 403.27 341.406C402.046 348.946 394.941 354.067 387.401 352.843Z" fill="#7AB92F"></path>
  <path d="M452.252 461.51C444.613 461.51 438.42 455.318 438.42 447.679C438.42 440.039 444.613 433.847 452.252 433.847C459.891 433.847 466.084 440.039 466.084 447.679C466.084 455.318 459.891 461.51 452.252 461.51Z" fill="#7AB92F"></path>
  <path d="M389.768 569.973C382.129 569.973 375.936 563.78 375.936 556.141C375.936 548.502 382.129 542.31 389.768 542.31C397.407 542.31 403.6 548.502 403.6 556.141C403.6 563.78 397.407 569.973 389.768 569.973Z" fill="#7AB92F"></path>
  <path d="M452.252 678.442C444.613 678.442 438.42 672.249 438.42 664.61C438.42 656.971 444.613 650.778 452.252 650.778C459.891 650.778 466.084 656.971 466.084 664.61C466.084 672.249 459.891 678.442 452.252 678.442Z" fill="#7AB92F"></path>
  <path d="M379.848 782.846C374.446 777.444 374.446 768.687 379.848 763.285C385.249 757.883 394.007 757.883 399.409 763.285C404.811 768.687 404.811 777.444 399.409 782.846C394.007 788.248 385.249 788.248 379.848 782.846Z" fill="#7AB92F"></path>
  <path d="M261.084 786.572C253.649 784.817 249.044 777.367 250.799 769.933C252.554 762.498 260.004 757.893 267.438 759.648C274.873 761.403 279.478 768.852 277.723 776.287C275.968 783.722 268.519 788.327 261.084 786.572Z" fill="#7AB92F"></path>
  <path d="M201.768 678.442C194.129 678.442 187.936 672.249 187.936 664.61C187.936 656.971 194.129 650.778 201.768 650.778C209.407 650.778 215.6 656.971 215.6 664.61C215.6 672.249 209.407 678.442 201.768 678.442Z" fill="#7AB92F"></path>
  <path d="M78.842 678.442C71.2029 678.442 65.0101 672.249 65.0101 664.61C65.0101 656.971 71.2029 650.778 78.842 650.778C86.4811 650.778 92.6738 656.971 92.6738 664.61C92.6738 672.249 86.4811 678.442 78.842 678.442Z" fill="#7AB92F"></path>
  <path d="M264.315 569.973C256.676 569.973 250.483 563.78 250.483 556.141C250.483 548.502 256.676 542.31 264.315 542.31C271.954 542.31 278.146 548.502 278.146 556.141C278.146 563.78 271.954 569.973 264.315 569.973Z" fill="#7AB92F"></path>
  <path d="M201.768 461.51C194.129 461.51 187.936 455.318 187.936 447.679C187.936 440.039 194.129 433.847 201.768 433.847C209.407 433.847 215.6 440.039 215.6 447.679C215.6 455.318 209.407 461.51 201.768 461.51Z" fill="#7AB92F"></path>
  <path d="M63.6723 452.972C60.749 445.914 64.1004 437.823 71.158 434.899C78.2157 431.976 86.3069 435.328 89.2302 442.385C92.1536 449.443 88.8021 457.534 81.7445 460.457C74.6869 463.381 66.5957 460.029 63.6723 452.972Z" fill="#7AB92F"></path>
  <path d="M13.8323 569.973C6.19315 569.973 0.000379562 563.78 0.000379562 556.141C0.000379562 548.502 6.19315 542.31 13.8323 542.31C21.4714 542.31 27.6641 548.502 27.6641 556.141C27.6641 563.78 21.4714 569.973 13.8323 569.973Z" fill="#7AB92F"></path>
  <path d="M13.8323 354.674C6.19315 354.674 0.000379562 348.482 0.000379562 340.843C0.000379562 333.203 6.19315 327.011 13.8323 327.011C21.4714 327.011 27.6641 333.203 27.6641 340.843C27.6641 348.482 21.4714 354.674 13.8323 354.674Z" fill="#7AB92F"></path>
  <path d="M264.315 353.052C256.676 353.052 250.483 346.86 250.483 339.221C250.483 331.581 256.676 325.389 264.315 325.389C271.954 325.389 278.146 331.581 278.146 339.221C278.146 346.86 271.954 353.052 264.315 353.052Z" fill="#7AB92F"></path>
  <path d="M201.768 244.588C194.129 244.588 187.936 238.396 187.936 230.757C187.936 223.118 194.129 216.925 201.768 216.925C209.407 216.925 215.6 223.118 215.6 230.757C215.6 238.396 209.407 244.588 201.768 244.588Z" fill="#7AB92F"></path>
  <path d="M262.178 135.913C254.638 134.689 249.517 127.584 250.741 120.044C251.965 112.504 259.07 107.383 266.611 108.607C274.151 109.831 279.271 116.936 278.047 124.476C276.823 132.017 269.719 137.137 262.178 135.913Z" fill="#7AB92F"></path>
  <path d="M577.457 678.442C569.818 678.442 563.625 672.249 563.625 664.61C563.625 656.971 569.818 650.778 577.457 650.778C585.096 650.778 591.289 656.971 591.289 664.61C591.289 672.249 585.096 678.442 577.457 678.442Z" fill="#7AB92F"></path>
  <path d="M636.937 786.555C629.503 784.8 624.898 777.351 626.653 769.916C628.407 762.481 635.857 757.877 643.292 759.631C650.727 761.386 655.331 768.836 653.577 776.271C651.822 783.705 644.372 788.31 636.937 786.555Z" fill="#7AB92F"></path>
  <path d="M577.371 895.367C569.732 895.367 563.539 889.174 563.539 881.535C563.539 873.896 569.732 867.703 577.371 867.703C585.01 867.703 591.203 873.896 591.203 881.535C591.203 889.174 585.01 895.367 577.371 895.367Z" fill="#7AB92F"></path>
</svg>
