<?xml version="1.0" encoding="UTF-8"?>
<svg xmlns="http://www.w3.org/2000/svg" width="110" height="110" viewBox="0 0 110 110" fill="none">
  <circle cx="55" cy="55" r="55" fill="#7AB92F"></circle>
  <path d="M22.0762 47.1264C22.2461 46.0663 22.3742 44.9974 22.5948 43.9474C23.239 40.8953 24.4968 38.1462 26.6804 35.86C26.8347 35.6796 27.0277 35.5365 27.2451 35.4412C27.4625 35.3459 27.6985 35.3009 27.9357 35.3096C33.7889 35.3325 39.6434 35.3185 45.4979 35.3337C45.7244 35.3468 45.951 35.3096 46.1615 35.2247C46.372 35.1399 46.561 35.0095 46.7152 34.843C48.9384 32.5842 51.1786 30.3441 53.4357 28.1225C53.6259 27.9348 53.9226 27.7421 54.1712 27.7421C58.6968 27.7256 63.2185 27.7256 67.7416 27.7256C67.8157 27.7338 67.889 27.7478 67.9609 27.7674V31.5068H60.42V58.0707C60.1347 58.0834 59.9128 58.1024 59.6858 58.1024C48.0834 58.1024 36.4814 58.1066 24.8798 58.1151C24.403 58.1151 24.176 57.9579 23.9782 57.5369C22.9884 55.4075 22.3806 53.1207 22.1827 50.7808C22.1581 50.6172 22.1225 50.4553 22.0762 50.2964V47.1264ZM35.5819 52.3747V41.0589H31.8577V52.3747H35.5819ZM39.4671 41.0614V52.3709H43.1825V41.0614H39.4671ZM50.7526 52.3836V41.069H47.0626V52.3836H50.7526Z" fill="white"></path>
  <path d="M86.9992 73.2473C84.5278 73.2574 82.0539 73.2587 79.585 73.284C79.1932 73.284 79.1678 73.052 79.0854 72.7768C77.9442 68.9727 75.4373 66.6193 71.5394 65.8509C69.2316 65.3957 67.048 65.8623 65.042 67.1062L64.2432 67.6134V39.1539C64.479 39.1437 64.6844 39.126 64.8899 39.126C69.2848 39.126 73.6798 39.1336 78.0773 39.1133C78.5516 39.1133 78.7785 39.2642 78.9802 39.6814C80.0161 41.8053 81.0851 43.9128 82.1401 46.0278C82.2402 46.2294 82.3239 46.4387 82.4507 46.724H71.8386V58.0601C72.0922 58.0741 72.3547 58.1007 72.6185 58.1007C77.1605 58.1007 81.703 58.1007 86.2459 58.1007C86.4995 58.1007 86.7532 58.1362 86.9992 58.1552V61.9593H83.2407V65.6366H86.9992V73.2473Z" fill="white"></path>
  <path d="M60.3818 61.9443V73.2298H46.8139C46.4563 71.7855 45.887 70.43 44.9118 69.2773C42.4557 66.3609 39.3135 65.1537 35.5855 65.9259C31.8575 66.6982 29.4559 69.058 28.3705 72.7099C28.2335 73.1714 28.0496 73.2944 27.5982 73.2894C25.823 73.2653 24.0541 73.2792 22.2383 73.2792V61.9443H60.3818Z" fill="white"></path>
  <path d="M37.1659 69.5384C39.9378 69.2544 42.7719 71.5546 43.1257 74.277C43.5872 77.8199 41.0841 80.5259 38.1068 80.8353C37.3601 80.9142 36.6051 80.8443 35.8855 80.6295C35.166 80.4148 34.4962 80.0594 33.9149 79.584C33.3337 79.1087 32.8525 78.5227 32.4992 77.8601C32.1459 77.1975 31.9275 76.4714 31.8567 75.7239C31.5537 72.6692 33.8691 69.6995 37.1659 69.5384Z" fill="white"></path>
  <path d="M75.5927 75.1972C75.5874 76.7029 74.9854 78.145 73.9187 79.2077C72.852 80.2704 71.4075 80.8669 69.9018 80.8665C66.78 80.8564 64.2021 78.2759 64.2198 75.1782C64.2376 72.0804 66.8294 69.4835 69.9259 69.4961C71.4303 69.5105 72.8686 70.1168 73.9292 71.1838C74.9898 72.2508 75.5875 73.6927 75.5927 75.1972Z" fill="white"></path>
  <path d="M75.6338 54.2523V50.5573C75.8443 50.542 76.0269 50.518 76.2107 50.518C78.7468 50.518 81.2828 50.5256 83.8189 50.5078C84.2323 50.5078 84.4592 50.6156 84.6406 51.0061C85.1364 52.0776 85.6854 53.1237 86.2497 54.2523H75.6338Z" fill="white"></path>
</svg>
