<?xml version="1.0" encoding="UTF-8"?>
<svg xmlns="http://www.w3.org/2000/svg" width="110" height="110" viewBox="0 0 110 110" fill="none">
  <circle cx="55" cy="55" r="55" fill="#7AB92F"></circle>
  <path d="M34.0292 56.8467C34.0292 50.2938 34.0951 43.7396 34.0007 37.1893C33.9528 33.9562 36.3661 31.83 39.3276 31.8637C46.8906 31.9503 54.4587 31.9064 62.0203 31.8831C63.752 31.8766 65.1448 32.4689 66.2881 33.7699C69.335 37.2333 72.3957 40.6819 75.4701 44.116C76.3237 45.0465 76.7903 46.2675 76.775 47.5301C76.7686 57.2735 76.7931 67.0169 76.7608 76.7577C76.7466 81.0254 73.4643 84.2947 69.203 84.309C60.0003 84.3383 50.7979 84.3383 41.596 84.309C37.3179 84.2973 34.0511 80.9995 34.0356 76.6995C34.0123 70.0819 34.0292 63.4643 34.0292 56.8467ZM55.5967 71.9131C55.9679 71.8692 56.5511 71.8381 57.1189 71.7282C60.3197 71.1139 63.8063 68.2105 62.4975 63.5458C61.4836 59.9324 59.2747 57.0601 56.6908 54.4516C55.9524 53.7041 54.7134 53.8192 53.9452 54.5939C53.3555 55.1901 52.7981 55.8225 52.264 56.4717C50.5828 58.5409 49.1188 60.7278 48.3674 63.3259C47.7803 65.3615 47.8851 67.2988 49.2352 69.0162C50.7936 71.0079 52.9106 71.8485 55.5967 71.9131ZM58.5104 37.4169C57.331 37.435 56.6831 37.8049 56.3119 38.5808C55.9071 39.424 56.0532 40.2181 56.6675 40.9164C57.7073 42.0959 58.7514 43.2719 59.7998 44.4444C62.4044 47.3758 65.0107 50.3072 67.6188 53.2386C68.4374 54.1516 69.7048 54.2201 70.5648 53.4571C71.4249 52.6941 71.5193 51.419 70.711 50.5046C67.0562 46.374 63.3877 42.255 59.7054 38.1476C59.3472 37.7415 58.7561 37.5592 58.5104 37.4169Z" fill="white"></path>
  <path d="M38.196 29.0957C38.196 28.2849 38.1443 27.4869 38.2103 26.6981C38.2814 25.8316 39.0612 25.1306 39.9329 25.0259C40.1689 25.0048 40.4059 24.9966 40.6429 25.0013C45.4288 25.0013 50.2138 25.0013 54.998 25.0013C56.7193 25.0013 57.4694 25.7592 57.4707 27.4869V29.0957H38.196Z" fill="white"></path>
</svg>
