<?xml version="1.0" encoding="UTF-8"?>
<svg xmlns="http://www.w3.org/2000/svg" width="110" height="110" viewBox="0 0 110 110" fill="none">
  <circle cx="55" cy="55" r="55" fill="#7AB92F"></circle>
  <path d="M91.9516 67.7108C91.765 68.4684 91.616 69.2428 91.382 69.9809C90.8525 71.6679 89.9193 73.2002 88.6634 74.4447C86.0663 77.0603 83.4628 79.668 80.8528 82.2678C80.7888 82.3318 80.7135 82.382 80.6035 82.4669C78.468 80.3314 76.3394 78.1982 74.2178 76.0673C72.9643 74.8054 71.6649 73.5882 70.7624 72.0102C66.8891 65.2442 71.1927 56.4114 78.9099 55.3237C85.2623 54.4267 90.8597 58.5827 91.8263 64.9072C91.8555 65.0144 91.8976 65.1178 91.9516 65.215V67.7108ZM84.0603 66.4879C84.0746 66.0247 83.9971 65.5632 83.8323 65.1301C83.6675 64.697 83.4186 64.3007 83.1001 63.9641C82.7815 63.6275 82.3995 63.3573 81.976 63.169C81.5526 62.9807 81.0961 62.878 80.6328 62.8668C78.7512 62.8111 77.1147 64.3835 77.0715 66.286C77.0583 66.7494 77.1368 67.2108 77.3024 67.6438C77.4679 68.0768 77.7173 68.4729 78.0363 68.8093C78.3552 69.1457 78.7374 69.4159 79.161 69.6043C79.5846 69.7927 80.0412 69.8956 80.5046 69.9071C82.3932 69.9628 84.0102 68.4071 84.0603 66.4879Z" fill="white"></path>
  <path d="M42.367 53.2777V49.1565C42.5857 49.1384 42.7849 49.1092 42.984 49.1092C47.4088 49.1092 51.8322 49.0855 56.2569 49.1092C60.8934 49.1398 64.5535 52.0743 65.5883 56.5325C66.8683 62.0297 62.5897 67.7358 56.9533 67.8277C50.2848 67.9363 43.6122 67.8681 36.9409 67.8723C34.6749 67.8723 32.8936 68.7205 31.8156 70.797C30.1596 73.9767 32.3991 77.9948 35.9757 78.2677C36.3685 78.297 36.7626 78.3012 37.1568 78.3026H70.3432V82.4362C70.1008 82.4488 69.8571 82.4711 69.6134 82.4711C58.6789 82.4711 47.7472 82.4293 36.8128 82.4919C31.9159 82.5212 28.154 79.1494 27.2975 75.031C26.0649 69.0979 30.5175 63.7344 36.7445 63.7121C43.1846 63.6884 49.6247 63.6996 56.0647 63.7121C58.3293 63.7121 60.0466 62.8054 61.0953 60.7679C62.6803 57.6829 60.5786 53.7623 57.1427 53.3793C56.591 53.3173 56.0363 53.2853 55.4812 53.2832C51.4051 53.2767 47.3285 53.2767 43.2514 53.2832L42.367 53.2777Z" fill="white"></path>
  <path d="M32.1067 53.4008C28.98 50.1655 25.6722 47.2644 22.9995 43.8647C17.8213 37.2812 22.0719 27.3286 30.3574 26.1266C35.232 25.4191 39.8142 27.7171 42.0983 32.0012C43.2116 34.078 43.6403 36.4533 43.3232 38.7882C43.006 41.1231 41.9592 43.2981 40.3323 45.0025C37.7849 47.6892 35.115 50.2602 32.5022 52.8855C32.3614 53.0502 32.2293 53.2222 32.1067 53.4008ZM35.5301 37.2101C35.5298 36.5175 35.3239 35.8406 34.9386 35.2651C34.5533 34.6896 34.0058 34.2414 33.3655 33.9773C32.7252 33.7132 32.0209 33.6451 31.3419 33.7816C30.6629 33.9181 30.0397 34.2531 29.5512 34.7441C29.0627 35.2351 28.731 35.8601 28.598 36.5398C28.465 37.2195 28.5368 37.9234 28.8042 38.5623C29.0716 39.2012 29.5226 39.7464 30.1001 40.1287C30.6776 40.5111 31.3556 40.7134 32.0482 40.7101C32.9714 40.6992 33.8534 40.3263 34.5045 39.6718C35.1557 39.0173 35.5239 38.1334 35.5301 37.2101Z" fill="white"></path>
</svg>
