<?xml version="1.0" encoding="UTF-8"?>
<svg xmlns="http://www.w3.org/2000/svg" width="110" height="110" viewBox="0 0 110 110" fill="none">
  <circle cx="55" cy="55" r="55" fill="#7AB92F"></circle>
  <path d="M53.1243 22H57.1279C57.4841 22.0656 57.8435 22.1126 58.2045 22.141C59.8272 22.1966 60.623 22.9949 60.5337 24.5525C60.53 24.7252 60.536 24.898 60.5518 25.07C60.658 26.9041 61.4653 28.6271 62.8066 29.8827C64.1479 31.1382 65.9206 31.8303 67.758 31.8156C69.8543 31.8 71.64 31.0393 73.1475 29.5684C74.0261 28.7093 74.9772 28.6511 75.8649 29.3691C77.7389 30.8887 79.4396 32.6103 80.936 34.5027C81.5571 35.288 81.5157 36.2194 80.8597 36.9763C80.663 37.204 80.4521 37.42 80.2489 37.6426C77.5082 40.6453 77.9197 45.5939 81.1055 48.1063C82.4383 49.1581 83.9523 49.6588 85.6345 49.7584C87.2067 49.8489 87.9352 50.5346 87.9637 52.0871C88.009 54.2114 88.0167 56.3422 87.9223 58.4652C87.855 59.9517 87.1666 60.486 85.6785 60.5042C81.0978 60.5598 77.7528 64.3194 78.317 68.7996C78.5357 70.5293 79.3522 71.955 80.5815 73.1828C81.3889 73.9913 81.4562 74.9668 80.7924 75.7935C79.2429 77.7268 77.4748 79.4742 75.5233 81.0008C74.7728 81.5882 73.8217 81.5377 73.0983 80.9154C72.8551 80.7045 72.6325 80.4665 72.3815 80.2685C70.3499 78.6423 68.0466 78.0692 65.5388 78.7588C62.4773 79.5958 60.4794 82.2376 60.3176 85.4525C60.2218 87.3453 59.6965 87.9184 57.8163 87.9714C55.9362 88.0245 54.078 87.9947 52.2082 87.9714C50.3655 87.952 49.4908 87.3388 49.5749 85.3283C49.5749 85.243 49.5749 85.1563 49.5646 85.0696C49.466 83.235 48.666 81.5084 47.3301 80.2469C45.9941 78.9854 44.2244 78.2854 42.3868 78.2917C40.2659 78.3047 38.4582 79.068 36.9404 80.5635C36.0902 81.3993 35.1418 81.4575 34.2787 80.7602C32.3869 79.2307 30.6717 77.495 29.1648 75.5852C28.5683 74.831 28.6123 73.8917 29.2386 73.1621C29.4482 72.9162 29.6746 72.686 29.8856 72.4466C32.59 69.471 32.1863 64.5316 29.0445 62.0178C27.8063 60.9988 26.267 60.4159 24.6643 60.3593C22.9187 60.2946 22.2303 59.6024 22.1294 57.8766C22.1113 57.5803 22.044 57.2866 22 56.9917V52.9888C22.0763 52.417 22.1398 51.8426 22.2316 51.2721C22.4037 50.2034 22.9601 49.6859 24.0316 49.6031C24.4198 49.5721 24.808 49.554 25.1962 49.5074C29.2192 49.0171 32.2199 45.8203 31.8382 41.6156C31.6713 39.7578 30.8431 38.226 29.5336 36.9155C28.7313 36.1134 28.6757 35.1405 29.346 34.3047C30.896 32.3735 32.6646 30.6282 34.6164 29.1039C35.3669 28.5178 36.3167 28.5761 37.0374 29.2061C37.2639 29.404 37.48 29.6136 37.7051 29.8142C40.482 32.302 44.9618 32.2076 47.621 29.5955C49.1272 28.1155 49.7858 26.2939 49.8453 24.2006C49.8816 22.9069 50.5182 22.3092 51.7954 22.1656C52.2379 22.1151 52.6805 22.0556 53.1243 22ZM65.2645 71.0869C65.1002 70.9135 64.9423 70.7402 64.778 70.5759C62.3285 68.1178 59.8686 65.6843 57.4398 63.2132C57.0386 62.8057 56.7294 62.719 56.1742 62.917C53.3404 63.9261 50.5014 63.842 47.7413 62.6582C42.5343 60.4214 39.7587 54.9527 40.9349 49.3858C41.0643 48.7493 41.2261 48.1567 41.9339 47.942C42.6417 47.7272 43.0985 48.1632 43.5566 48.6147C45.1546 50.2125 46.7682 51.7947 48.356 53.4015C48.7571 53.8078 49.1828 53.976 49.7418 53.8841C50.8443 53.703 51.9494 53.5309 53.0557 53.377C53.4828 53.3187 53.7027 53.1182 53.7623 52.6861C53.9227 51.5597 54.0952 50.4341 54.2799 49.3095C54.3717 48.7506 54.1919 48.3379 53.7817 47.9355C52.09 46.2761 50.4194 44.5985 48.77 42.9029C47.9509 42.0658 48.2305 40.8756 49.3278 40.6466C50.3539 40.4331 51.4124 40.2378 52.4527 40.2585C54.3213 40.2752 56.1584 40.7413 57.8089 41.6173C59.4594 42.4933 60.8749 43.7535 61.9357 45.2915C62.9965 46.8296 63.6716 48.6002 63.9039 50.454C64.1362 52.3078 63.919 54.1903 63.2705 55.9424C63.1087 56.3901 63.2084 56.6294 63.5163 56.9347C65.993 59.3894 68.4607 61.8522 70.9193 64.3233C71.0706 64.4733 71.2285 64.6169 71.3864 64.767C75.6203 58.1987 75.3266 47.4193 67.4954 40.6298C60.1908 34.3034 48.9383 34.3733 41.6376 41.5354C34.663 48.3741 34.1544 59.9336 40.4458 67.2937C47.2108 75.2062 58.1722 75.8375 65.2645 71.0869Z" fill="white"></path>
</svg>
