<svg width="435" height="613" viewBox="0 0 435 613" fill="none" xmlns="http://www.w3.org/2000/svg">
<path d="M391.974 524.67C364.82 561.522 326.714 588.849 283.1 602.748C239.486 616.648 192.595 616.408 149.126 602.063C105.656 587.718 67.8324 560.002 41.0573 522.874C14.2822 485.747 -0.0743472 441.107 0.038749 395.332C0.038749 267.3 115.398 178.2 160.079 124.635C190.765 89.4876 210.597 46.1931 217.171 0V0C220.045 5.09515 259.108 80.4773 223.834 160.171C190.258 236.467 104.555 287.419 104.555 395.332C104.616 423.055 114.949 449.772 133.558 470.322V470.322C166.481 516.962 278.443 573.401 391.451 524.67" fill="#50AD30"/>
<mask id="mask0_1902_10422" style="mask-type:luminance" maskUnits="userSpaceOnUse" x="133" y="194" width="302" height="353">
<path d="M434.693 395.45C434.609 442.038 419.488 487.354 391.581 524.658C348.708 545.746 300.004 551.852 253.253 542C206.502 532.148 164.403 506.906 133.688 470.31C144.176 482.098 157.032 491.541 171.416 498.025C185.801 504.508 201.391 507.885 217.17 507.935C246.953 507.663 275.439 495.71 296.5 474.65C317.561 453.589 329.513 425.103 329.786 395.319C329.786 371.281 328.348 324.118 282.361 262.715C264.112 236.737 242.097 213.62 217.039 194.126C359.181 194.126 434.432 301.516 434.432 395.45" fill="white"/>
</mask>
<g mask="url(#mask0_1902_10422)">
<path d="M434.693 194.126H133.688V595.206H434.693V194.126Z" fill="url(#paint0_linear_1902_10422)"/>
</g>
<defs>
<linearGradient id="paint0_linear_1902_10422" x1="305.486" y1="581.358" x2="266.423" y2="239.591" gradientUnits="userSpaceOnUse">
<stop stop-color="#00682E"/>
<stop offset="0.03" stop-color="#00682E"/>
<stop offset="0.93" stop-color="#50AD30"/>
<stop offset="1" stop-color="#50AD30"/>
</linearGradient>
</defs>
</svg>
