<svg width="140" height="69" viewBox="0 0 140 69" fill="none" xmlns="http://www.w3.org/2000/svg">
<path d="M0.0157721 52.2508V44.7311H19.5765C20.6041 44.7311 21.1119 44.2838 21.1119 43.4134V42.966C21.1321 42.78 21.1133 42.5919 21.0565 42.4136C20.9997 42.2353 20.9063 42.0709 20.7822 41.9309C20.6581 41.7908 20.5061 41.6783 20.3359 41.6005C20.1658 41.5227 19.9812 41.4813 19.7942 41.479L7.05185 39.4964C2.36113 38.8516 0.0157721 36.4337 0.0157721 32.2427V28.7367C-0.0503513 27.7671 0.0919461 26.7946 0.433091 25.8845C0.774236 24.9745 1.30632 24.1481 1.99354 23.4608C2.68076 22.7736 3.5072 22.2415 4.41724 21.9004C5.32728 21.5592 6.29983 21.4169 7.26946 21.4831H28.5832V26.3188L25.9477 29.0148H9.90496C8.88945 29.0148 8.3696 29.45 8.3696 30.3325V30.7678C8.35129 30.954 8.37145 31.142 8.42882 31.3202C8.48619 31.4983 8.57955 31.6628 8.70311 31.8033C8.82666 31.9439 8.97779 32.0576 9.1471 32.1373C9.31641 32.217 9.50029 32.2611 9.68735 32.2669L22.4417 34.2858C24.4246 34.4662 26.2953 35.2849 27.7732 36.6191C28.3665 37.2867 28.8215 38.0653 29.112 38.9099C29.4025 39.7544 29.5227 40.6482 29.4657 41.5395V45.0575C29.5319 46.0272 29.3896 46.9997 29.0484 47.9097C28.7073 48.8198 28.1752 49.6462 27.488 50.3334C26.8007 51.0207 25.9743 51.5527 25.0643 51.8939C24.1542 52.235 23.1817 52.3773 22.212 52.3112L0.0157721 52.2508Z" fill="white"/>
<path d="M42.9335 52.2497V28.9532H31.7266V21.4819H62.4943V26.3177L59.8467 28.9532H51.2873V52.2497H42.9335Z" fill="white"/>
<path d="M128.793 21.4819V44.7784H137.365L140 47.4139V52.2497H120.439V21.4819H128.793Z" fill="white"/>
<path d="M0.994872 67.701C0.586156 67.4634 0.24814 67.1212 0.015625 66.7096L0.886066 66.0568C1.06578 66.3093 1.28643 66.5299 1.5389 66.7096C1.79218 66.8791 2.09275 66.9638 2.39725 66.9514C2.62514 66.9647 2.85087 66.9008 3.03799 66.7701C3.11472 66.7126 3.17667 66.6376 3.21871 66.5514C3.26075 66.4652 3.28168 66.3703 3.27978 66.2744C3.28406 66.1965 3.26987 66.1186 3.23836 66.0472C3.20684 65.9757 3.1589 65.9128 3.09844 65.8634C2.91332 65.7203 2.71006 65.6024 2.49397 65.5128L1.82905 65.2831C1.41705 65.1127 1.04307 64.862 0.728904 64.5456C0.469164 64.2677 0.330068 63.8982 0.342041 63.518C0.331442 63.1913 0.424546 62.8697 0.608009 62.5992C0.784249 62.3271 1.03646 62.1127 1.33338 61.9826C1.66385 61.8341 2.02287 61.7598 2.38516 61.765C2.81092 61.7572 3.23016 61.8704 3.59411 62.0915C3.936 62.2947 4.21603 62.5873 4.4041 62.9377L3.54575 63.5905C3.42314 63.3782 3.24698 63.2017 3.03485 63.0786C2.82272 62.9556 2.58203 62.8903 2.3368 62.8894C2.13915 62.8788 1.94357 62.9341 1.78069 63.0465C1.71994 63.0964 1.67101 63.1592 1.63741 63.2302C1.60382 63.3013 1.58639 63.3789 1.58639 63.4576C1.58639 63.5362 1.60382 63.6138 1.63741 63.6849C1.67101 63.756 1.71994 63.8187 1.78069 63.8686C1.94979 64.003 2.13701 64.1129 2.3368 64.195L3.0259 64.4973C3.45858 64.6665 3.85014 64.9262 4.1744 65.2589C4.42826 65.5444 4.56246 65.9167 4.54918 66.2986C4.5583 66.6433 4.46265 66.9827 4.27487 67.2719C4.08709 67.5612 3.81599 67.7866 3.49739 67.9186C3.15297 68.078 2.77668 68.1565 2.39725 68.1483C1.89668 68.1361 1.41006 67.9808 0.994872 67.701Z" fill="white"/>
<path d="M9.62724 65.5619V67.9798H8.35785V65.574L6.24219 61.8384H7.63248L8.99859 64.2805L10.3526 61.8384H11.7429L9.62724 65.5619Z" fill="white"/>
<path d="M19.1414 61.8367V68.0991H18.7182L15.1639 64.2909V67.9782H13.8945V61.7158H14.3056L17.8841 65.4998V61.8367H19.1414Z" fill="white"/>
<path d="M23.2518 62.9748H21.2812V61.8384H26.4797V62.9748H24.5091V67.9798H23.2518V62.9748Z" fill="white"/>
<path d="M28.6191 61.8384H29.8764V64.1958H32.6087V61.8384H33.866V67.9798H32.6087V65.3322H29.8764V67.9798H28.6191V61.8384Z" fill="white"/>
<path d="M36.6592 61.8384H40.7938V62.9748H37.9165V64.22H40.0321V65.296H37.9165V66.8434H40.9147V67.9798H36.6592V61.8384Z" fill="white"/>
<path d="M44.8075 62.9748H42.8369V61.8384H48.0475V62.9748H46.0648V67.9798H44.8075V62.9748Z" fill="white"/>
<path d="M51.4448 61.8384H50.1875V67.9919H51.4448V61.8384Z" fill="white"/>
<path d="M55.5179 67.6999C55.0121 67.4148 54.594 66.9968 54.309 66.4909C54.0234 65.9988 53.873 65.4399 53.873 64.871C53.873 64.302 54.0234 63.7431 54.309 63.251C54.604 62.7685 55.021 62.3723 55.5179 62.1025C56.0239 61.82 56.5947 61.6742 57.1742 61.6793C57.7289 61.6764 58.2747 61.8181 58.7579 62.0904C59.2285 62.3552 59.6174 62.7441 59.8822 63.2147L58.9272 63.8796C58.7543 63.5702 58.5016 63.3128 58.1954 63.1342C57.8892 62.9556 57.5408 62.8623 57.1863 62.8641C56.8275 62.8576 56.4732 62.9451 56.1587 63.118C55.8646 63.293 55.6225 63.5434 55.4575 63.8433C55.2751 64.1633 55.1832 64.5269 55.1915 64.8951C55.1829 65.2596 55.275 65.6193 55.4575 65.9348C55.6197 66.2336 55.8627 66.4808 56.1587 66.6481C56.4732 66.821 56.8275 66.9085 57.1863 66.902C57.544 66.9048 57.8958 66.8107 58.2044 66.6298C58.513 66.4489 58.767 66.1879 58.9393 65.8744L59.8943 66.5393C59.6375 67.0118 59.2518 67.4017 58.7821 67.6636C58.2924 67.9417 57.7372 68.0836 57.1742 68.0747C56.599 68.0947 56.0285 67.9656 55.5179 67.6999Z" fill="white"/>
<path d="M67.7534 62.9748H65.7949V61.8384H70.9934V62.9748H69.0228V67.9798H67.7534V62.9748Z" fill="white"/>
<path d="M73.1328 61.8384H77.2795V62.9748H74.3901V64.22H76.5058V65.296H74.3901V66.8434H77.3883V67.9798H73.1328V61.8384Z" fill="white"/>
<path d="M80.9908 67.6999C80.4823 67.4184 80.0633 66.9995 79.7818 66.4909C79.5644 66.1256 79.423 65.7201 79.3662 65.2988C79.3094 64.8775 79.3383 64.449 79.4512 64.0391C79.5641 63.6292 79.7587 63.2464 80.0233 62.9136C80.2878 62.5808 80.6169 62.3049 80.9908 62.1025C81.4967 61.82 82.0676 61.6742 82.647 61.6793C83.2017 61.6764 83.7475 61.8181 84.2307 62.0904C84.7014 62.3552 85.0903 62.7441 85.3551 63.2147L84.4 63.8796C84.2271 63.5702 83.9744 63.3128 83.6682 63.1342C83.362 62.9556 83.0136 62.8623 82.6591 62.8641C82.3068 62.8508 81.9577 62.9352 81.6505 63.108C81.3432 63.2809 81.0898 63.5354 80.9182 63.8433C80.7454 64.1666 80.658 64.5286 80.6643 64.8951C80.6579 65.2578 80.7454 65.616 80.9182 65.9348C81.0882 66.2318 81.3345 66.4781 81.6315 66.6481C81.946 66.821 82.3003 66.9085 82.6591 66.902C83.0168 66.9048 83.3686 66.8107 83.6772 66.6298C83.9859 66.4489 84.2398 66.1879 84.4121 65.8744L85.3671 66.5393C85.1092 67.0151 84.7186 67.4057 84.2428 67.6636C83.758 67.9429 83.2064 68.085 82.647 68.0747C82.0718 68.0947 81.5013 67.9656 80.9908 67.6999Z" fill="white"/>
<path d="M87.7246 61.8384H88.9819V64.1958H91.702V61.8384H92.9593V67.9798H91.702V65.3322H88.9819V67.9798H87.7246V61.8384Z" fill="white"/>
<path d="M100.999 61.8367V68.0991H100.576L97.022 64.2909V67.9782H95.7646V61.7158H96.1757L99.7421 65.4998V61.8367H100.999Z" fill="white"/>
<path d="M106.705 68.0996C106.13 68.1043 105.563 67.9584 105.061 67.6764C104.555 67.3914 104.137 66.9733 103.852 66.4675C103.566 65.9754 103.416 65.4165 103.416 64.8475C103.416 64.2785 103.566 63.7196 103.852 63.2275C104.146 62.7439 104.563 62.3475 105.061 62.079C105.563 61.797 106.13 61.6511 106.705 61.6559C107.28 61.6539 107.846 61.7996 108.349 62.079C108.847 62.3475 109.265 62.7439 109.558 63.2275C109.851 63.7171 110.006 64.277 110.006 64.8475C110.006 65.418 109.851 65.9779 109.558 66.4675C109.273 66.9733 108.855 67.3914 108.349 67.6764C107.846 67.9559 107.28 68.1016 106.705 68.0996ZM107.721 66.673C108.018 66.503 108.264 66.2567 108.434 65.9597C108.605 65.6359 108.693 65.2743 108.688 64.9079C108.693 64.5455 108.605 64.1877 108.434 63.8682C108.158 63.4176 107.718 63.0908 107.207 62.9557C106.696 62.8206 106.152 62.8876 105.69 63.1429C105.396 63.3132 105.154 63.5596 104.988 63.8562C104.822 64.1817 104.735 64.5422 104.735 64.9079C104.735 65.2737 104.822 65.6341 104.988 65.9597C105.154 66.2563 105.396 66.5027 105.69 66.673C106.002 66.8402 106.351 66.9277 106.705 66.9277C107.059 66.9277 107.408 66.8402 107.721 66.673Z" fill="white"/>
<path d="M112.411 61.8384H113.668V66.8434H116.364V67.9798H112.411V61.8384Z" fill="white"/>
<path d="M121.382 68.0987C120.825 68.1015 120.277 67.9643 119.786 67.6998C119.281 67.4147 118.863 66.9966 118.578 66.4908C118.292 65.9987 118.142 65.4398 118.142 64.8708C118.142 64.3019 118.292 63.743 118.578 63.2509C118.871 62.7673 119.289 62.3708 119.786 62.1024C120.29 61.8251 120.856 61.6797 121.431 61.6797C122.006 61.6797 122.571 61.8251 123.075 62.1024C123.572 62.3722 123.989 62.7684 124.284 63.2509C124.569 63.743 124.72 64.3019 124.72 64.8708C124.72 65.4398 124.569 65.9987 124.284 66.4908C123.997 66.9955 123.58 67.4133 123.075 67.6998C122.573 67.9807 122.006 68.1265 121.431 68.1229M122.446 66.6964C122.746 66.5298 122.993 66.2827 123.159 65.9831C123.331 65.6593 123.418 65.2976 123.413 64.9313C123.418 64.5688 123.331 64.2111 123.159 63.8916C122.991 63.5865 122.741 63.3336 122.439 63.1609C122.136 62.9882 121.791 62.9022 121.443 62.9123C121.088 62.9045 120.737 62.9922 120.427 63.1662C120.13 63.3363 119.884 63.5825 119.714 63.8795C119.547 64.2051 119.461 64.5656 119.461 64.9313C119.461 65.297 119.547 65.6575 119.714 65.9831C119.884 66.2801 120.13 66.5263 120.427 66.6964C120.738 66.8625 121.085 66.9494 121.437 66.9494C121.789 66.9494 122.136 66.8625 122.446 66.6964Z" fill="white"/>
<path d="M128.37 67.7C127.864 67.4149 127.446 66.9968 127.161 66.491C126.871 66.0007 126.721 65.4406 126.726 64.8711C126.721 64.3031 126.867 63.744 127.149 63.2511C127.44 62.7656 127.858 62.3686 128.358 62.1026C128.868 61.8186 129.443 61.6727 130.026 61.6794C130.539 61.6747 131.045 61.795 131.501 62.03C131.944 62.2696 132.325 62.609 132.613 63.0214L131.719 63.7588C131.422 63.3315 130.977 63.0287 130.471 62.9083C129.965 62.7878 129.432 62.8582 128.974 63.106C128.68 63.281 128.438 63.5314 128.273 63.8314C128.11 64.1533 128.027 64.5101 128.031 64.8711C128.025 65.2414 128.112 65.6073 128.285 65.9349C128.452 66.2447 128.704 66.5005 129.011 66.6724C129.327 66.8179 129.672 66.8932 130.02 66.8932C130.369 66.8932 130.713 66.8179 131.03 66.6724C131.296 66.5378 131.528 66.3433 131.707 66.1042V65.6085H130.002V64.5084H132.964V66.491C132.675 66.9939 132.258 67.4111 131.755 67.7C131.233 67.9889 130.647 68.1405 130.05 68.1405C129.454 68.1405 128.867 67.9889 128.346 67.7" fill="white"/>
<path d="M137.884 65.5619V67.9798H136.627V65.574L134.499 61.8384H135.889L137.255 64.2805L138.609 61.8384H140L137.884 65.5619Z" fill="white"/>
<path d="M116.184 21.4819H108.06V52.2497H116.184V21.4819Z" fill="white"/>
<path fill-rule="evenodd" clip-rule="evenodd" d="M104.409 36.5817C104.401 40.8965 103.002 45.0937 100.419 48.5502C96.4521 50.5017 91.9451 51.0667 87.6189 50.155C83.2927 49.2433 79.397 46.9075 76.5547 43.521C77.957 45.093 79.8043 46.2013 81.8513 46.6989C83.8982 47.1964 86.0481 47.0597 88.0155 46.3068C89.983 45.5539 91.6749 44.2205 92.8668 42.4836C94.0587 40.7466 94.6942 38.6882 94.6889 36.5817C94.6889 34.3451 94.5438 29.9808 90.3004 24.3108C88.6137 21.9053 86.5762 19.7659 84.2557 17.9639C97.4211 17.9639 104.385 27.8893 104.385 36.5817" fill="#6BB42B"/>
<path d="M100.443 48.5513C97.9306 51.9614 94.4044 54.4902 90.3685 55.7764C86.3326 57.0626 81.9934 57.0404 77.9709 55.713C73.9484 54.3855 70.4483 51.8208 67.9706 48.3851C65.4929 44.9494 64.1644 40.8186 64.1749 36.5827C64.1749 24.7351 74.8499 16.49 78.9845 11.5334C81.8241 8.2809 83.6593 4.27456 84.2676 0C84.5336 0.471489 88.1483 7.44711 84.8841 14.8217C81.7771 21.8819 73.8464 26.5968 73.8464 36.5827C73.8522 39.1482 74.8083 41.6204 76.5303 43.5221C79.5769 47.838 89.9375 53.0607 100.395 48.5513" fill="#50AD30"/>
<mask id="mask0_1836_1329" style="mask-type:luminance" maskUnits="userSpaceOnUse" x="76" y="17" width="29" height="34">
<path d="M104.396 36.5937C104.388 40.9048 102.989 45.0982 100.407 48.5502C96.4394 50.5017 91.9324 51.0667 87.6062 50.155C83.28 49.2433 79.3843 46.9075 76.542 43.521C77.5125 44.6118 78.7022 45.4857 80.0333 46.0857C81.3644 46.6856 82.8071 46.9981 84.2672 47.0028C87.0232 46.9776 89.6592 45.8715 91.6081 43.9226C93.557 41.9737 94.6631 39.3377 94.6883 36.5817C94.6883 34.3572 94.5553 29.9929 90.2998 24.3108C88.6111 21.9069 86.5738 19.7678 84.2551 17.9639C97.4084 17.9639 104.372 27.9014 104.372 36.5937" fill="white"/>
</mask>
<g mask="url(#mask0_1836_1329)">
<path d="M104.396 17.9639H76.542V55.0785H104.396V17.9639Z" fill="url(#paint0_linear_1836_1329)"/>
</g>
<defs>
<linearGradient id="paint0_linear_1836_1329" x1="92.4396" y1="53.7971" x2="88.8249" y2="22.171" gradientUnits="userSpaceOnUse">
<stop stop-color="#00682E"/>
<stop offset="0.03" stop-color="#00682E"/>
<stop offset="0.93" stop-color="#50AD30"/>
<stop offset="1" stop-color="#50AD30"/>
</linearGradient>
</defs>
</svg>
