<svg width="127" height="63" viewBox="0 0 127 63" fill="none" xmlns="http://www.w3.org/2000/svg">
<path d="M0.0143076 47.6404V40.7843H17.7587C18.6909 40.7843 19.1515 40.3764 19.1515 39.5828V39.175C19.1699 39.0054 19.1527 38.8338 19.1012 38.6713C19.0497 38.5087 18.965 38.3588 18.8524 38.2311C18.7398 38.1034 18.6019 38.0008 18.4476 37.9299C18.2932 37.859 18.1258 37.8212 17.9561 37.8192L6.39703 36.0114C2.14188 35.4235 0.0143076 33.219 0.0143076 29.3978V26.2012C-0.0456759 25.3171 0.0834082 24.4304 0.392875 23.6006C0.702343 22.7709 1.18502 22.0174 1.80843 21.3908C2.43184 20.7642 3.18153 20.2791 4.00706 19.968C4.8326 19.657 5.71484 19.5272 6.59444 19.5875H25.929V23.9966L23.5383 26.4547H8.98522C8.064 26.4547 7.59242 26.8515 7.59242 27.6562V28.053C7.57582 28.2228 7.5941 28.3942 7.64614 28.5567C7.69819 28.7191 7.78288 28.869 7.89496 28.9972C8.00705 29.1253 8.14413 29.229 8.29772 29.3017C8.45131 29.3744 8.61812 29.4146 8.78781 29.4198L20.3579 31.2606C22.1566 31.4251 23.8536 32.1716 25.1943 33.388C25.7324 33.9967 26.1452 34.7066 26.4088 35.4767C26.6723 36.2467 26.7813 37.0616 26.7296 37.8743V41.0819C26.7896 41.966 26.6605 42.8527 26.3511 43.6824C26.0416 44.5122 25.5589 45.2657 24.9355 45.8923C24.3121 46.5189 23.5624 47.004 22.7369 47.3151C21.9113 47.6261 21.0291 47.7558 20.1495 47.6955L0.0143076 47.6404Z" fill="black"/>
<path d="M38.9466 47.6393V26.3984H28.7803V19.5864H56.691V23.9955L54.2893 26.3984H46.5247V47.6393H38.9466Z" fill="black"/>
<path d="M116.834 19.5864V40.8272H124.609L127 43.2302V47.6393H109.256V19.5864H116.834Z" fill="black"/>
<path d="M0.902965 61.7275C0.532202 61.5109 0.225573 61.1989 0.0146484 60.8236L0.804263 60.2284C0.967286 60.4586 1.16745 60.6598 1.39648 60.8236C1.62624 60.9782 1.89889 61.0553 2.17512 61.0441C2.38185 61.0562 2.58662 60.998 2.75637 60.8787C2.82597 60.8263 2.88217 60.758 2.9203 60.6794C2.95844 60.6008 2.97743 60.5142 2.9757 60.4268C2.97959 60.3557 2.96671 60.2847 2.93813 60.2196C2.90954 60.1545 2.86605 60.0971 2.8112 60.052C2.64327 59.9216 2.45889 59.8141 2.26286 59.7324L1.65968 59.5229C1.28594 59.3676 0.94669 59.139 0.661694 58.8506C0.426073 58.5972 0.299893 58.2603 0.310755 57.9136C0.301139 57.6158 0.385599 57.3225 0.552025 57.0759C0.711901 56.8278 0.940691 56.6324 1.21004 56.5137C1.50982 56.3783 1.83551 56.3106 2.16416 56.3153C2.55038 56.3082 2.93069 56.4114 3.26084 56.6129C3.57099 56.7982 3.82502 57.065 3.99562 57.3845L3.21698 57.9798C3.10575 57.7861 2.94595 57.6252 2.75351 57.513C2.56108 57.4008 2.34275 57.3413 2.12029 57.3404C1.94099 57.3308 1.76357 57.3812 1.61581 57.4837C1.56071 57.5292 1.51632 57.5864 1.48584 57.6512C1.45537 57.716 1.43956 57.7868 1.43956 57.8585C1.43956 57.9302 1.45537 58.001 1.48584 58.0658C1.51632 58.1306 1.56071 58.1878 1.61581 58.2333C1.76921 58.3558 1.93904 58.456 2.12029 58.5309L2.7454 58.8065C3.1379 58.9608 3.4931 59.1975 3.78726 59.5009C4.01754 59.7613 4.13928 60.1007 4.12723 60.4489C4.1355 60.7632 4.04874 61.0726 3.87839 61.3363C3.70804 61.6 3.46213 61.8056 3.17311 61.9259C2.86067 62.0712 2.51932 62.1429 2.17512 62.1353C1.72104 62.1242 1.2796 61.9827 0.902965 61.7275Z" fill="black"/>
<path d="M8.73283 59.777V61.9816H7.58131V59.7881L5.66211 56.382H6.9233L8.16256 58.6086L9.39085 56.382H10.652L8.73283 59.777Z" fill="black"/>
<path d="M17.3641 56.3806V62.0904H16.9803L13.756 58.6182V61.9802H12.6045V56.2704H12.9774L16.2236 59.7205V56.3806H17.3641Z" fill="black"/>
<path d="M21.0923 57.4182H19.3047V56.382H24.0204V57.4182H22.2328V61.9816H21.0923V57.4182Z" fill="black"/>
<path d="M25.9619 56.382H27.1025V58.5315H29.581V56.382H30.7215V61.9816H29.581V59.5676H27.1025V61.9816H25.9619V56.382Z" fill="black"/>
<path d="M33.2549 56.382H37.0056V57.4182H34.3954V58.5535H36.3146V59.5345H34.3954V60.9454H37.1152V61.9816H33.2549V56.382Z" fill="black"/>
<path d="M40.647 57.4182H38.8594V56.382H43.5861V57.4182H41.7875V61.9816H40.647V57.4182Z" fill="black"/>
<path d="M46.6679 56.382H45.5273V61.9926H46.6679V56.382Z" fill="black"/>
<path d="M50.3623 61.7265C49.9034 61.4667 49.5242 61.0854 49.2656 60.6243C49.0065 60.1756 48.8701 59.666 48.8701 59.1472C48.8701 58.6285 49.0065 58.1189 49.2656 57.6702C49.5332 57.2303 49.9115 56.8691 50.3623 56.623C50.8213 56.3655 51.3391 56.2325 51.8647 56.2372C52.3679 56.2345 52.863 56.3637 53.3014 56.612C53.7283 56.8534 54.0811 57.208 54.3213 57.6371L53.4549 58.2434C53.2981 57.9612 53.0689 57.7265 52.7911 57.5637C52.5134 57.4008 52.1973 57.3158 51.8757 57.3174C51.5502 57.3115 51.2288 57.3913 50.9435 57.5489C50.6767 57.7085 50.4571 57.9368 50.3074 58.2103C50.142 58.502 50.0586 58.8335 50.0662 59.1693C50.0584 59.5015 50.1418 59.8295 50.3074 60.1172C50.4546 60.3897 50.675 60.615 50.9435 60.7676C51.2288 60.9252 51.5502 61.005 51.8757 60.999C52.2002 61.0016 52.5193 60.9158 52.7993 60.7509C53.0793 60.586 53.3096 60.3479 53.4659 60.0621L54.3323 60.6684C54.0993 61.0992 53.7494 61.4546 53.3233 61.6935C52.8791 61.947 52.3755 62.0764 51.8647 62.0683C51.343 62.0865 50.8254 61.9688 50.3623 61.7265Z" fill="black"/>
<path d="M61.4622 57.4182H59.6855V56.382H64.4013V57.4182H62.6137V61.9816H61.4622V57.4182Z" fill="black"/>
<path d="M66.3418 56.382H70.1034V57.4182H67.4824V58.5535H69.4016V59.5345H67.4824V60.9454H70.2021V61.9816H66.3418V56.382Z" fill="black"/>
<path d="M73.4701 61.7265C73.0088 61.4699 72.6287 61.0879 72.3734 60.6243C72.1762 60.2912 72.0479 59.9215 71.9964 59.5373C71.9448 59.1531 71.9711 58.7625 72.0735 58.3888C72.1759 58.0151 72.3524 57.666 72.5924 57.3626C72.8324 57.0591 73.131 56.8076 73.4701 56.623C73.9291 56.3655 74.4469 56.2325 74.9726 56.2372C75.4757 56.2345 75.9709 56.3637 76.4092 56.612C76.8361 56.8534 77.1889 57.208 77.4291 57.6371L76.5628 58.2434C76.4059 57.9612 76.1767 57.7265 75.8989 57.5637C75.6212 57.4008 75.3051 57.3158 74.9835 57.3174C74.664 57.3053 74.3473 57.3823 74.0685 57.5399C73.7898 57.6974 73.5599 57.9295 73.4043 58.2103C73.2475 58.505 73.1682 58.8351 73.174 59.1693C73.1682 59.4999 73.2475 59.8265 73.4043 60.1172C73.5585 60.388 73.7819 60.6125 74.0513 60.7676C74.3366 60.9252 74.658 61.005 74.9835 60.999C75.308 61.0016 75.6272 60.9158 75.9071 60.7509C76.1871 60.586 76.4174 60.3479 76.5737 60.0621L77.4401 60.6684C77.2061 61.1022 76.8518 61.4583 76.4202 61.6935C75.9804 61.9481 75.48 62.0777 74.9726 62.0683C74.4508 62.0865 73.9332 61.9688 73.4701 61.7265Z" fill="black"/>
<path d="M79.5791 56.382H80.7196V58.5315H83.1872V56.382H84.3278V61.9816H83.1872V59.5676H80.7196V61.9816H79.5791V56.382Z" fill="black"/>
<path d="M91.6207 56.3806V62.0904H91.2369L88.0126 58.6182V61.9802H86.8721V56.2704H87.2449L90.4802 59.7205V56.3806H91.6207Z" fill="black"/>
<path d="M96.7971 62.0906C96.275 62.0949 95.7608 61.9619 95.3056 61.7048C94.8468 61.4449 94.4675 61.0637 94.2089 60.6025C93.9499 60.1538 93.8135 59.6442 93.8135 59.1255C93.8135 58.6067 93.9499 58.0971 94.2089 57.6484C94.4753 57.2075 94.8539 56.846 95.3056 56.6013C95.7608 56.3441 96.275 56.2111 96.7971 56.2155C97.319 56.2137 97.8325 56.3465 98.2886 56.6013C98.7404 56.846 99.119 57.2075 99.3853 57.6484C99.651 58.0948 99.7914 58.6053 99.7914 59.1255C99.7914 59.6457 99.651 60.1561 99.3853 60.6025C99.1267 61.0637 98.7475 61.4449 98.2886 61.7048C97.8325 61.9596 97.319 62.0924 96.7971 62.0906ZM97.7183 60.7899C97.9878 60.6349 98.2112 60.4104 98.3654 60.1396C98.5208 59.8443 98.6 59.5146 98.5957 59.1806C98.6001 58.8501 98.5208 58.5239 98.3654 58.2326C98.1147 57.8217 97.7161 57.5238 97.2525 57.4006C96.7889 57.2774 96.2959 57.3386 95.8759 57.5713C95.6095 57.7266 95.3898 57.9512 95.2398 58.2216C95.0887 58.5185 95.0099 58.8471 95.0099 59.1806C95.0099 59.514 95.0887 59.8427 95.2398 60.1396C95.3898 60.4099 95.6095 60.6346 95.8759 60.7899C96.1593 60.9424 96.4757 61.0221 96.7971 61.0221C97.1185 61.0221 97.435 60.9424 97.7183 60.7899Z" fill="black"/>
<path d="M101.973 56.382H103.113V60.9454H105.559V61.9816H101.973V56.382Z" fill="black"/>
<path d="M110.111 62.0902C109.605 62.0928 109.108 61.9677 108.663 61.7265C108.204 61.4666 107.825 61.0854 107.566 60.6242C107.307 60.1755 107.171 59.6659 107.171 59.1471C107.171 58.6284 107.307 58.1188 107.566 57.6701C107.833 57.2292 108.211 56.8677 108.663 56.6229C109.12 56.3701 109.633 56.2375 110.155 56.2375C110.676 56.2375 111.189 56.3701 111.646 56.6229C112.097 56.869 112.475 57.2302 112.743 57.6701C113.002 58.1188 113.138 58.6284 113.138 59.1471C113.138 59.6659 113.002 60.1755 112.743 60.6242C112.483 61.0843 112.104 61.4652 111.646 61.7265C111.19 61.9826 110.677 62.1156 110.155 62.1123M111.076 60.8116C111.348 60.6597 111.572 60.4344 111.723 60.1612C111.878 59.866 111.957 59.5362 111.953 59.2022C111.957 58.8718 111.878 58.5456 111.723 58.2543C111.57 57.9761 111.344 57.7456 111.069 57.5881C110.794 57.4306 110.482 57.3522 110.166 57.3614C109.843 57.3543 109.525 57.4342 109.244 57.5929C108.975 57.7479 108.751 57.9725 108.597 58.2433C108.446 58.5401 108.367 58.8688 108.367 59.2022C108.367 59.5357 108.446 59.8644 108.597 60.1612C108.751 60.432 108.975 60.6565 109.244 60.8116C109.526 60.9631 109.841 61.0423 110.16 61.0423C110.48 61.0423 110.794 60.9631 111.076 60.8116Z" fill="black"/>
<path d="M116.45 61.7266C115.991 61.4667 115.612 61.0855 115.353 60.6244C115.09 60.1773 114.954 59.6666 114.958 59.1473C114.954 58.6295 115.086 58.1197 115.342 57.6703C115.606 57.2276 115.985 56.8656 116.439 56.6231C116.901 56.3642 117.423 56.2312 117.952 56.2373C118.417 56.233 118.877 56.3427 119.29 56.557C119.692 56.7754 120.037 57.0848 120.299 57.4608L119.487 58.1332C119.218 57.7436 118.815 57.4675 118.356 57.3577C117.897 57.2479 117.413 57.3121 116.998 57.538C116.731 57.6976 116.512 57.9259 116.362 58.1994C116.214 58.4929 116.138 58.8182 116.143 59.1473C116.137 59.485 116.216 59.8186 116.373 60.1173C116.524 60.3998 116.752 60.633 117.031 60.7897C117.318 60.9223 117.63 60.991 117.947 60.991C118.263 60.991 118.575 60.9223 118.862 60.7897C119.104 60.667 119.314 60.4896 119.476 60.2716V59.8197H117.93V58.8166H120.617V60.6244C120.355 61.0829 119.977 61.4632 119.52 61.7266C119.047 61.9901 118.515 62.1283 117.974 62.1283C117.433 62.1283 116.901 61.9901 116.428 61.7266" fill="black"/>
<path d="M125.08 59.777V61.9816H123.94V59.7881L122.01 56.382H123.271L124.51 58.6086L125.739 56.382H127L125.08 59.777Z" fill="black"/>
<path d="M105.395 19.5864H98.0254V47.6393H105.395V19.5864Z" fill="black"/>
<path fill-rule="evenodd" clip-rule="evenodd" d="M94.714 33.3537C94.7069 37.2878 93.4377 41.1147 91.0949 44.2662C87.496 46.0455 83.4076 46.5607 79.4831 45.7294C75.5586 44.8981 72.0247 42.7684 69.4463 39.6808C70.7184 41.114 72.3941 42.1246 74.251 42.5782C76.1079 43.0319 78.0582 42.9072 79.8429 42.2208C81.6277 41.5343 83.1625 40.3185 84.2437 38.7348C85.325 37.1511 85.9014 35.2744 85.8966 33.3537C85.8966 31.3145 85.765 27.3353 81.9156 22.1656C80.3855 19.9723 78.5372 18.0217 76.4322 16.3787C88.3751 16.3787 94.692 25.4283 94.692 33.3537" fill="#6BB42B"/>
<path d="M91.1165 44.2674C88.8371 47.3766 85.6384 49.6823 81.9772 50.855C78.3161 52.0277 74.3799 52.0074 70.7309 50.7971C67.0819 49.5868 63.9068 47.2484 61.6591 44.1158C59.4115 40.9833 58.2064 37.217 58.2159 33.3548C58.2159 22.5525 67.8996 15.035 71.6503 10.5157C74.2262 7.55023 75.891 3.89739 76.4428 0C76.6841 0.429887 79.9632 6.79001 77.0021 13.5139C74.1837 19.9512 66.9894 24.2501 66.9894 33.3548C66.9946 35.6939 67.862 37.9481 69.424 39.6819C72.1877 43.617 81.5863 48.3789 91.0727 44.2674" fill="#50AD30"/>
<mask id="mask0_1836_1652" style="mask-type:luminance" maskUnits="userSpaceOnUse" x="69" y="16" width="26" height="31">
<path d="M94.7023 33.3647C94.6952 37.2954 93.4259 41.1188 91.0832 44.2662C87.4843 46.0455 83.3959 46.5607 79.4714 45.7294C75.5469 44.8981 72.013 42.7684 69.4346 39.6808C70.315 40.6753 71.3942 41.4721 72.6017 42.0191C73.8092 42.5661 75.1179 42.8511 76.4424 42.8553C78.9425 42.8323 81.3338 41.8239 83.1017 40.0469C84.8696 38.27 85.873 35.8666 85.8958 33.3537C85.8958 31.3255 85.7752 27.3463 81.9149 22.1656C80.383 19.9738 78.5349 18.0234 76.4314 16.3787C88.3634 16.3787 94.6803 25.4394 94.6803 33.3647" fill="white"/>
</mask>
<g mask="url(#mask0_1836_1652)">
<path d="M94.7023 16.3787H69.4346V50.2185H94.7023V16.3787Z" fill="url(#paint0_linear_1836_1652)"/>
</g>
<defs>
<linearGradient id="paint0_linear_1836_1652" x1="83.856" y1="49.0501" x2="80.5439" y2="20.2184" gradientUnits="userSpaceOnUse">
<stop stop-color="#00682E"/>
<stop offset="0.03" stop-color="#00682E"/>
<stop offset="0.93" stop-color="#50AD30"/>
<stop offset="1" stop-color="#50AD30"/>
</linearGradient>
</defs>
</svg>
